{"title":"Lottery Ticket 2010 DVDRip XviD-ARROW","uid":5916109,"size":775686556,"categoryP":"video","categoryS":"movies","magnet":"?xt=urn:btih:d08201ddb27cd45f33665cd8b63ef275e86b29ef&amp;dn=Lottery+Ticket+2010+DVDRip+XviD-ARROW&amp;tr=udp%3A%2F%2Ftracker.openbittorrent.com%3A80&amp;tr=udp%3A%2F%2Fopen.demonii.com%3A1337&amp;tr=udp%3A%2F%2Ftracker.coppersurfer.tk%3A6969&amp;tr=udp%3A%2F%2Fexodus.desync.com%3A6969","seeders":14,"leechers":2,"uploader":"IwannaFan2","files":5,"time":1288233095,"description":"Filename:\nLottery Ticket 2010 DVDRip XviD-ARROW\n &lt;a href=&quot;\nhttp://www.imdb.com/title/tt0979434/&quot; rel=&quot;nofollow&quot; target=&quot;_NEW&quot;&gt;\nhttp://www.imdb.com/title/tt0979434/&lt;/a&gt;\n\nVideo\nID                               : 0\nFormat                           : MPEG-4 Visual\nFormat profile                   : AdvancedSimple@L5\nFormat settings, BVOP            : Yes\nFormat settings, QPel            : No\nFormat settings, GMC             : No warppoints\nFormat settings, Matrix          : Default (H.263)\nMuxing mode                      : Packed bitstream\nCodec ID                         : XVID\nCodec ID/Hint                    : XviD\nDuration                         : 1h 39mn\nBit rate                         : 845 Kbps\nWidth                            : 640 pixels\nHeight                           : 272 pixels\nDisplay aspect ratio             : 2.35:1\nFrame rate                       : 23.976 fps\nResolution                       : 24 bits\nColorimetry                      : 4:2:0\nScan type                        : Progressive\nBits/(Pixel*Frame)               : 0.202\nStream size                      : 599 MiB (86%)\nWriting library                  : XviD 57\n\nAudio\nID                               : 1\nFormat                           : MPEG Audio\nFormat version                   : Version 1\nFormat profile                   : Layer 3\nFormat_Settings_Mode             : Joint stereo / MS Stereo\nCodec ID                         : 55\nCodec ID/Hint                    : MP3\nDuration                         : 1h 39mn\nBit rate mode                    : Variable\nBit rate                         : 123 Kbps\nNominal bit rate                 : 128 Kbps\nChannel(s)                       : 2 channels\nSampling rate                    : 48.0 KHz\nResolution                       : 16 bits\nStream size                      : 87.5 MiB (13%)\nAlignment                        : Aligned on interleaves\nInterleave, duration             : 24 ms (0.58 video frame)\nInterleave, preload duration     : 164 ms\nWriting library                  : LAME3.98b\nEncoding settings                : -m j -V 4 -q 3 -lowpass 17 --abr 128\n","torrent":{"xt":"urn:btih:d08201ddb27cd45f33665cd8b63ef275e86b29ef","amp;dn":"Lottery+Ticket+2010+DVDRip+XviD-ARROW","amp;tr":["udp%3A%2F%2Ftracker.openbittorrent.com%3A80","udp%3A%2F%2Fopen.demonii.com%3A1337","udp%3A%2F%2Ftracker.coppersurfer.tk%3A6969","udp%3A%2F%2Fexodus.desync.com%3A6969"],"infoHash":"d08201ddb27cd45f33665cd8b63ef275e86b29ef","infoHashBuffer":{"type":"Buffer","data":[208,130,1,221,178,124,212,95,51,102,92,216,182,62,242,117,232,107,41,239]},"announce":[],"urlList":[]}}